HIERARCHY
ROOT Hips
{
	OFFSET 0.000000 0.000000 0.000000
	CHANNELS 6 Xposition Yposition Zposition Zrotation Xrotation Yrotation
	JOINT RightUpLeg
	{
		OFFSET -10.032200 0.000000 0.000000
		CHANNELS 3 Zrotation Xrotation Yrotation
		JOINT RightLeg
		{
			OFFSET 0.000000 -40.977000 0.000000
			CHANNELS 3 Zrotation Xrotation Yrotation
			JOINT RightFoot
			{
				OFFSET 0.000000 -38.933200 0.000000
				CHANNELS 3 Zrotation Xrotation Yrotation
				JOINT RightToe
				{
					OFFSET 0.000000 -1.977400 9.184000
					CHANNELS 3 Zrotation Xrotation Yrotation
					JOINT RightToeEnd
					{
						OFFSET 0.000000 2.335600 6.099100
						CHANNELS 3 Zrotation Xrotation Yrotation
						End Site
						{
						    OFFSET 0.000000 1.788000 4.669400
						}
					}
				}
			}
		}
	}
	JOINT LeftUpLeg
	{
		OFFSET 10.032200 0.000000 0.000000
		CHANNELS 3 Zrotation Xrotation Yrotation
		JOINT LeftLeg
		{
			OFFSET 0.000000 -40.977000 0.000000
			CHANNELS 3 Zrotation Xrotation Yrotation
			JOINT LeftFoot
			{
				OFFSET 0.000000 -38.933200 0.000000
				CHANNELS 3 Zrotation Xrotation Yrotation
				JOINT LeftToe
				{
					OFFSET 0.000000 -1.977400 9.184000
					CHANNELS 3 Zrotation Xrotation Yrotation
					JOINT LeftToeEnd
					{
						OFFSET 0.000000 2.335600 6.099100
						CHANNELS 3 Zrotation Xrotation Yrotation
						End Site
						{
						    OFFSET 0.000000 1.788000 4.669400
						}
					}
				}
			}
		}
	}
	JOINT Spine
	{
		OFFSET 0.000000 16.960900 0.000000
		CHANNELS 3 Zrotation Xrotation Yrotation
		JOINT Spine1
		{
			OFFSET 0.000000 13.413900 0.000000
			CHANNELS 3 Zrotation Xrotation Yrotation
			JOINT Spine2
			{
				OFFSET 0.000000 10.384400 0.000000
				CHANNELS 3 Zrotation Xrotation Yrotation
				JOINT LeftShoulder
				{
					OFFSET 2.000000 10.384400 0.000000
					CHANNELS 3 Zrotation Xrotation Yrotation
					JOINT LeftArm
					{
						OFFSET 15.649100 0.000000 0.000000
						CHANNELS 3 Zrotation Xrotation Yrotation
						JOINT LeftForeArm
						{
							OFFSET 0.000000 -26.641600 0.000000
							CHANNELS 3 Zrotation Xrotation Yrotation
							JOINT LeftHand
							{
								OFFSET 0.000000 -23.740600 0.000000
								CHANNELS 3 Zrotation Xrotation Yrotation
								JOINT LeftFinger0
								{
									OFFSET 0.000000 -7.620900 0.000000
									CHANNELS 3 Zrotation Xrotation Yrotation
									End Site
									{
									    OFFSET 0.000000 -5.000000 0.000000
									}
								}
							}
						}
					}
				}
				JOINT RightShoulder
				{
					OFFSET -2.000000 10.384400 0.000000
					CHANNELS 3 Zrotation Xrotation Yrotation
					JOINT RightArm
					{
						OFFSET -15.649100 0.000000 0.000000
						CHANNELS 3 Zrotation Xrotation Yrotation
						JOINT RightForeArm
						{
							OFFSET 0.000000 -26.641600 0.000000
							CHANNELS 3 Zrotation Xrotation Yrotation
							JOINT RightHand
							{
								OFFSET 0.000000 -23.740600 0.000000
								CHANNELS 3 Zrotation Xrotation Yrotation
								JOINT RightFinger0
								{
									OFFSET 0.000000 -7.620900 0.000000
									CHANNELS 3 Zrotation Xrotation Yrotation
									End Site
									{
									    OFFSET 0.000000 -5.000000 0.000000
									}
								}
							}
						}
					}
				}
				JOINT Neck
				{
					OFFSET 0.000000 10.384400 0.000000
					CHANNELS 3 Zrotation Xrotation Yrotation
					JOINT Head
					{
						OFFSET 0.000000 10.146900 0.000000
						CHANNELS 3 Zrotation Xrotation Yrotation
						JOINT HeadTip
						{
							OFFSET 0.000000 10.000000 0.000000
							CHANNELS 3 Zrotation Xrotation Yrotation
							End Site
							{
							    OFFSET 0.000000 5.000000 0.000000
							}
						}
					}
				}
			}
		}
	}
}
MOTION
Frames:	5
Frame Time:	0.033332
61.171300 50.413400 -53.379100 -46.479531 10.585355 113.414920 -54.829532 -54.616138 -53.769047 -180.000037 64.706147 180.000037 15.983091 40.859453 -4.666670 -0.000000 8.237781 -0.000000 0.000000 -0.000000 -0.000000 104.422292 -72.555866 -48.658586 -180.000037 -69.223423 -180.000037 12.551257 6.434478 170.057896 0.000000 -1.262928 -0.000000 0.000000 0.000000 0.000000 19.850331 61.007443 -35.465398 -0.000000 -3.187405 -0.000000 -0.000000 0.000000 -0.000000 16.546878 0.000000 -3.146852 98.490759 -60.797695 44.257185 -0.000000 -41.004434 -0.000000 52.873459 -19.701127 -28.931374 -0.000000 0.000000 -0.000000 -8.555097 -0.000000 11.493460 -64.250822 -50.828668 137.738786 0.000218 55.048068 -0.000113 51.681550 36.764265 -133.993338 -0.000000 0.000000 -0.000000 -0.000000 0.000000 -0.000000 5.551561 7.153587 4.583477 -0.000000 -0.000000 -0.000000 
62.784300 48.431100 -53.017000 -46.901227 9.265802 115.339034 -56.434493 -55.905512 -57.780070 -180.000037 61.931273 -180.000037 14.535037 41.356567 -4.892735 -0.000000 9.438813 -0.000000 -0.000000 -0.000000 -0.000000 108.605400 -70.940990 -45.431442 180.000037 -65.648235 180.000037 12.395838 5.424904 168.412717 -0.000000 -2.326114 -0.000000 -0.000000 -0.000000 -0.000000 12.298265 50.727563 -23.651375 0.000000 6.526996 0.000000 0.000000 -0.000000 -0.000000 14.933012 0.000000 -10.135985 107.347448 -59.794912 49.872159 0.000000 -38.003460 0.000000 48.257878 -18.022581 -31.359396 -0.000000 -0.000000 -0.000000 -6.322524 -0.000000 7.961934 -64.894740 -46.270096 143.122253 0.000211 54.289029 -0.000108 52.736516 34.825007 -135.791001 -0.000000 -0.000000 -0.000000 0.000000 -0.000000 -0.000000 6.953544 5.914331 -1.152721 -0.000000 0.000000 -0.000000 
64.409300 47.161800 -52.349000 -47.063640 9.962195 117.288060 -56.047464 -54.773770 -58.307822 -180.000037 61.832891 -180.000037 12.632099 44.469687 -6.974119 -0.000000 11.041666 0.000000 -0.000000 0.000000 0.000000 104.938990 -70.346752 -49.681731 180.000037 -64.250929 180.000037 13.382403 3.563733 164.603217 -0.000000 -2.736781 0.000000 -0.000000 -0.000000 0.000000 10.224077 49.893167 -22.347943 0.000000 5.983574 0.000000 -0.000000 -0.000000 -0.000000 15.586606 0.000000 -9.989118 112.296052 -61.931007 50.067125 -0.000000 -34.911174 -0.000000 47.193298 -15.775389 -30.191396 -0.000000 0.000000 -0.000000 -5.990381 0.000000 7.531634 -62.056522 -41.129718 148.530564 0.000233 56.874816 -0.000126 50.990770 34.699091 -134.833509 0.000000 0.000000 -0.000000 -0.000000 -0.000000 -0.000000 7.305539 6.400027 -1.678275 0.000000 0.000000 -0.000000 
65.635300 47.550000 -51.739000 -49.157284 9.316684 117.649935 -57.282767 -55.554747 -62.563942 -180.000037 62.423579 -180.000037 9.029572 43.467733 -10.357822 0.000000 6.758144 -0.000000 -0.000000 -0.000000 0.000000 104.221411 -69.526109 -50.366702 -180.000037 -65.378812 180.000037 14.061886 2.984066 162.411748 0.000000 -3.268771 -0.000000 0.000000 -0.000000 0.000000 10.049075 49.082092 -20.085676 0.000000 5.094391 -0.000000 -0.000000 0.000000 -0.000000 14.887170 0.000000 -10.233432 117.348970 -62.583514 48.944616 -0.000000 -33.252971 -0.000000 49.827538 -15.088270 -27.061320 -0.000000 0.000000 -0.000000 -7.981061 -0.000000 5.180001 -60.334323 -37.162806 146.026364 0.000313 64.105375 -0.000196 40.505732 36.338929 -126.386203 -0.000000 -0.000000 -0.000000 -0.000000 0.000000 -0.000000 3.485810 5.632965 -2.465109 -0.000000 0.000000 -0.000000 
66.995300 48.617900 -51.198700 -49.487369 10.035214 117.167562 -53.657043 -54.480435 -60.552230 180.000037 64.013962 -180.000037 7.199494 40.243390 -12.161135 -0.000000 2.455827 -0.000000 -0.000000 0.000000 -0.000000 96.468800 -69.100644 -57.079188 -180.000037 -67.040734 180.000037 13.456769 2.451991 162.681811 0.000000 -3.374077 0.000000 -0.000000 0.000000 -0.000000 8.684493 49.888529 -20.078136 0.000000 8.544532 -0.000000 -0.000000 -0.000000 0.000000 15.786245 0.000000 -6.561811 120.449863 -63.486886 56.442270 -0.000000 -34.167509 -0.000000 50.578363 -16.739656 -28.209529 -0.000000 0.000000 0.000000 -10.114797 -0.000000 3.804265 -63.623951 -38.181005 137.856175 0.000425 70.305542 -0.000299 36.495756 31.508208 -126.853930 -0.000000 0.000000 0.000000 -0.000000 -0.000000 0.000000 0.535095 1.469432 0.382703 -0.000000 -0.000000 -0.000000 
